<svg width="865" height="1278" viewBox="0 0 865 1278" fill="none" xmlns="http://www.w3.org/2000/svg">
<g opacity="0.15">
<path d="M102.863 76.5426C69.6054 -9.98703 -94.9273 -52.717 -67.776 119.571C-63.3241 147.821 -62.8762 196.464 -67.776 255.672C-72.2644 309.911 -160.132 339.589 -187.104 409.67C-229.404 519.58 -71.246 596.187 -96.4147 653.965C-129.379 729.638 -230.315 762.472 -286.146 803.873C-338.704 842.847 -372.183 905.384 -385.037 969.678C-407.588 1082.47 -366.663 1200.68 -253.927 1206.56C-197.493 1209.51 -123.062 1184.3 -29.5912 1116.18C12.1999 1085.72 49.0508 1060.62 81.8018 1040.33C166.097 988.087 143.434 1111.65 243.67 1116.18C300.783 1118.76 360.435 1012.09 405.592 1068.99C437.701 1109.45 474.548 1158.54 527.169 1209.01C619.579 1297.64 735.118 1310.69 751.46 1184.19C759.175 1124.48 744.784 1033.67 695.421 905.029C663.832 822.708 742.407 825.61 751.46 720.119C760.514 614.629 686.482 565.98 740.073 522.319L741.147 521.444C781.995 488.169 825.561 452.68 849.354 384.516C869.849 325.799 867.891 267.644 849.354 222.958C829.516 175.133 790.688 142.736 740.073 141.587C689.288 140.434 626.634 170.74 559.387 248.488C515.05 299.749 485.024 180.473 405.592 192.666C326.16 204.859 315.12 319.945 267.535 286.566C184.877 228.583 141.813 177.884 102.863 76.5426Z" stroke="#FFC658" stroke-dasharray="11 11"/>
<path d="M263.306 548.542C258.244 535.259 234.657 538.745 233.463 553.142C232.104 569.533 240.389 590.894 239.432 607.324C237.582 639.048 226.375 648.078 204.06 664.799C196.061 670.782 190.966 680.383 189.01 690.253C185.578 707.569 191.806 725.716 208.963 726.619C217.551 727.071 228.879 723.201 243.104 712.743C249.464 708.068 255.072 704.214 260.056 701.098C281.754 686.449 301.947 697.928 309.332 705.498C314.219 711.71 319.826 719.246 327.834 726.994C341.898 740.601 363.195 738.818 361.968 723.185C360.235 701.098 322.528 618.658 361.968 604.282C380.289 597.605 379.687 582.479 376.866 575.619C373.847 568.277 367.938 563.303 360.235 563.127C352.507 562.95 339.703 575.619 332.738 579.538C307.024 594.007 284.081 601.486 263.306 548.542Z" stroke="#FFC658" stroke-dasharray="11 11"/>
<path d="M-40.2658 157.266C-64.3626 0.423641 85.9932 39.5211 116.483 118.847C153.813 215.826 195.082 261.278 272.63 312.726C316.243 342.919 326.738 237.837 399.469 226.416C472.201 214.994 499.988 323.232 540.68 276.602C602.567 205.881 660.112 178.757 706.595 180.468C752.777 181.823 788.182 211.795 806.07 255.8C822.774 296.951 824.153 350.353 804.672 404.076C779.246 467.934 742.53 507.682 705.24 540.181C656.534 580.609 723.437 625.264 714.57 721.304C705.702 817.345 633.404 814.438 661.507 888.721C705.693 1005.06 718.276 1087 710.813 1140.77C695.608 1255.52 589.855 1243.22 504.983 1162.4C456.315 1116.3 421.836 1071.71 391.634 1035.56C350.094 984.068 295.308 1081.47 242.763 1079.54C150.914 1075.9 170.954 963.798 93.7382 1011.53C63.4219 1030.19 29.4393 1053.11 -8.97607 1080.8C-95.5836 1142.69 -163.872 1163.99 -214.909 1159.75C-317.396 1153.95 -354.472 1045.96 -333.724 942.945C-321.799 884.053 -291.041 826.805 -242.855 791.075C-190.026 751.899 -97.1677 721.212 -67.0058 649.5C-44.0619 596.192 -188.133 525.64 -149.807 424.791C-125.427 360.177 -45.6367 332.324 -41.491 282.237C-36.9786 227.719 -36.8226 183.059 -40.2658 157.266Z" stroke="#FFC658" stroke-dasharray="11 11"/>
<path d="M-11.5219 196.548C-32.5288 55.666 103.43 91.0025 131.109 162.863C166.763 255.153 206.179 295.21 278.503 339.958C318.081 366.865 328.015 272.132 393.939 261.521C459.864 250.909 485.371 347.754 522.36 305.908C578.797 242.446 631.148 218.591 673.261 220.855C714.941 222.41 746.874 249.857 762.785 289.898C777.631 327.377 778.428 375.85 759.989 424.403C733.176 483.145 703.92 526.983 670.552 558.34C626.803 595.403 686.48 635.916 677.811 722.191C669.141 808.466 603.227 805.565 627.802 871.568C666.746 975.226 677.504 1048.03 670.302 1095.68C656.256 1198.31 560.443 1186.79 483.233 1114.05C438.589 1072.48 406.529 1032.53 378.278 1000.8C340.414 954.897 290.574 1042.71 242.675 1041.44C159.347 1038.68 176.734 938.419 106.711 981.479C78.8741 998.453 47.8093 1019.11 12.8259 1043.94C-66.7919 1099.41 -128.839 1116.72 -174.403 1111.2C-266.49 1105.51 -299.664 1008.1 -280.749 915.198C-269.771 861.903 -241.777 810.131 -198.035 777.764C-148.285 740.944 -63.6394 712.505 -36.3243 644.996C-15.6387 596.334 -145.412 532.071 -111.116 440.614C-89.3654 381.682 -17.7679 355.747 -13.9709 309.977C-9.85239 260.329 -9.09256 219.8 -11.5219 196.548Z" stroke="#FFC658" stroke-dasharray="11 11"/>
<path d="M15.9803 234.244C-1.96872 108.809 119.803 140.513 144.713 205.169C178.749 293.095 216.372 327.905 283.585 366.119C319.188 389.839 328.577 305.111 387.797 295.271C447.016 285.432 470.283 371.238 503.625 334.023C554.699 277.589 601.938 256.916 639.745 259.737C676.989 261.498 705.498 286.519 719.457 322.741C732.468 356.683 732.684 400.404 715.259 443.962C687.014 497.8 665.176 545.872 635.678 576.197C596.819 610.028 649.361 646.546 640.876 723.371C632.392 800.195 572.759 797.289 593.843 855.254C627.604 946.612 636.553 1010.55 629.601 1052.25C616.693 1143.13 530.672 1132.36 461.006 1067.43C420.316 1030.23 390.625 994.782 364.28 967.368C330.035 926.874 285.065 1005.41 241.737 1004.8C166.801 1002.92 181.561 914.124 118.624 952.673C93.2222 968.017 65.0273 986.483 33.4217 1008.55C-39.3297 1057.79 -95.2318 1071.2 -135.392 1064.38C-217.222 1058.78 -246.543 971.588 -229.434 888.461C-219.385 840.569 -194.112 794.085 -154.746 764.963C-107.997 730.369 -31.4335 704.077 -6.92311 640.531C11.536 596.337 -104.139 538.132 -73.8209 455.734C-54.6654 402.271 8.84882 378.161 12.3029 336.544C16.034 291.586 17.3991 255.04 15.9803 234.244Z" stroke="#FFC658" stroke-dasharray="11 11"/>
<path d="M44.7109 271.939C29.852 161.955 137.22 190.025 159.317 247.475C191.674 331.045 227.439 360.606 289.423 392.281C320.988 412.812 329.815 338.092 382.225 329.023C434.634 319.955 455.619 394.719 485.256 362.136C530.876 312.732 572.918 295.242 606.354 298.623C639.095 300.591 664.128 323.186 676.11 355.589C687.263 385.994 686.899 424.961 670.517 463.524C640.89 512.458 626.51 564.779 600.935 594.077C567.034 624.675 612.348 657.198 604.063 724.569C595.778 791.94 542.532 789.028 560.088 838.952C588.607 918.005 595.73 973.068 589.04 1008.82C577.292 1087.94 501.217 1077.92 439.218 1020.81C402.554 987.985 375.283 957.036 350.893 933.935C320.327 898.854 280.305 968.116 241.625 968.161C175.215 967.165 187.322 889.837 131.581 923.875C108.66 937.588 83.3853 953.866 55.2136 973.164C-10.5427 1016.18 -60.2001 1025.67 -94.8858 1017.56C-166.313 1012.04 -191.73 935.071 -176.455 861.723C-167.354 819.235 -144.847 778.041 -109.927 752.165C-66.2608 719.794 2.08475 695.647 23.747 636.06C39.9469 596.337 -61.4239 544.188 -35.1379 470.852C-18.6119 422.857 36.7062 400.571 39.8113 363.106C43.1482 322.839 45.1164 290.277 44.7109 271.939Z" stroke="#FFC658" stroke-dasharray="11 11"/>
<path d="M73.4301 311.408C61.6598 217.121 154.622 241.495 173.905 291.611C204.578 370.635 238.478 394.88 295.226 419.946C322.753 437.244 331.017 372.698 376.614 364.421C422.211 356.145 440.914 419.7 466.844 391.822C507.008 349.557 543.852 335.29 572.914 339.223C601.152 341.393 622.71 361.511 632.715 390.021C642.01 416.823 641.066 450.949 625.731 484.43C594.731 528.35 587.8 584.799 566.147 613.001C537.206 640.298 575.291 668.754 567.208 726.521C559.125 784.289 512.268 781.378 526.297 823.149C549.575 889.721 554.874 935.787 548.448 965.514C537.861 1032.7 471.734 1023.45 417.404 974.288C384.769 945.907 359.922 919.527 337.487 900.789C310.602 871.202 275.531 931.034 241.502 931.733C183.619 931.621 193.074 865.936 144.532 895.385C124.094 907.437 101.74 921.492 77.0032 937.979C18.2469 974.673 -25.164 980.232 -54.3755 970.834C-115.399 965.41 -136.912 898.841 -123.473 835.436C-115.32 798.448 -95.5799 762.635 -65.1066 740.062C-24.5301 709.988 35.5943 688.041 54.4077 632.548C68.3481 597.383 -18.7176 551.408 3.5369 487.298C17.4339 444.88 64.5557 424.468 67.3116 391.24C70.2542 355.753 72.824 327.248 73.4301 311.408Z" stroke="#FFC658" stroke-dasharray="11 11"/>
<path d="M100.905 349.103C92.1985 270.275 170.948 291.014 187.457 333.922C216.51 408.597 248.618 427.588 300.247 446.11C323.792 460.217 331.511 405.683 370.391 398.177C409.271 390.672 425.73 443.178 448.007 419.935C482.798 384.704 514.522 373.623 539.27 378.117C563.063 380.494 581.191 398.186 589.24 422.876C596.697 446.14 595.171 475.511 580.85 503.995C548.412 543.012 548.917 603.726 531.141 630.904C507.098 654.969 538.036 679.428 530.137 727.737C522.238 776.046 481.673 773.129 492.205 806.854C510.289 861.113 513.775 898.299 507.6 922.073C498.151 977.503 441.834 968.998 395.061 927.653C366.387 903.647 343.912 881.771 323.387 867.348C300.126 843.179 269.932 893.732 240.482 895.088C191.007 895.858 197.83 841.651 156.385 866.586C138.387 877.008 118.908 888.874 97.5547 902.591C45.6758 933.055 8.42111 934.694 -15.3769 923.993C-66.1235 918.652 -83.7774 862.311 -72.1454 808.691C-64.9243 777.108 -47.9099 746.587 -21.8202 727.26C15.752 699.408 67.7803 679.606 83.784 628.068C95.4938 597.374 22.5525 557.457 40.8215 502.412C52.1182 465.463 91.1417 446.875 93.5542 417.799C96.1086 387.004 99.2854 362.485 100.905 349.103Z" stroke="#FFC658" stroke-dasharray="11 11"/>
<path d="M129.589 386.795C123.969 323.438 188.298 340.541 201.989 376.237C229.344 446.579 259.572 460.309 305.945 472.275C325.447 483.188 332.599 438.673 364.659 431.938C396.719 425.203 410.891 466.65 429.455 448.045C458.782 419.854 485.3 411.964 505.67 417.022C524.956 419.607 539.606 434.874 545.678 455.742C551.276 475.467 549.172 500.082 535.904 523.566C502.117 557.68 510.053 622.694 496.201 648.854C477.121 669.687 500.828 690.147 493.135 728.991C485.442 767.835 451.277 764.911 458.284 790.58C471.129 832.513 472.793 860.81 466.885 878.624C458.601 922.282 412.242 914.522 373.149 881.002C348.512 861.375 328.469 844.005 309.909 833.905C290.335 815.16 265.098 856.427 240.306 858.442C199.369 860.097 203.542 817.379 169.305 837.797C153.794 846.587 137.241 856.264 119.328 867.208C74.465 891.437 43.4652 889.147 25.1431 877.134C-15.1935 871.875 -28.9417 825.769 -19.1481 781.939C-12.8775 755.765 1.3659 730.538 23.0028 714.46C57.4697 688.825 101.264 671.167 114.416 623.576C123.864 597.352 65.2391 563.496 79.4749 517.519C88.1418 486.041 118.964 469.274 121.027 444.352C123.187 418.25 126.961 397.718 129.589 386.795Z" stroke="#FFC658" stroke-dasharray="11 11"/>
<path d="M157.468 424.484C154.91 376.619 205.165 390.081 216.113 418.559C241.93 484.591 270.454 493.049 311.835 498.443C327.399 506.157 334.026 471.672 359.441 465.706C384.855 459.74 396.818 490.112 411.771 476.152C435.795 455.01 457.253 450.317 473.355 455.944C488.236 458.741 499.487 471.581 503.612 488.625C507.382 504.81 504.686 524.664 492.394 543.144C457.051 572.356 472.485 641.72 462.486 666.873C448.266 684.473 464.867 700.933 457.334 730.299C449.801 759.665 421.847 756.732 425.363 774.331C433.03 803.917 432.877 823.308 427.201 835.151C420.035 867.02 383.384 860.004 351.758 834.319C331.021 819.076 313.296 806.219 296.594 800.45C280.599 787.137 260.182 819.109 239.911 821.786C207.289 824.331 208.831 793.118 181.615 809.014L180.865 809.423C167.982 816.456 154.51 823.812 140.217 831.825C102.118 849.809 77.2044 843.574 64.263 830.24C34.1229 825.06 24.2085 789.2 32.2175 755.171C37.5726 734.411 49.123 714.483 66.4251 701.656C97.9853 678.232 133.786 662.716 144.157 619.06C151.395 597.309 106.773 569.515 117.05 532.614C123.132 506.609 145.916 491.661 147.64 470.893C149.417 449.487 153.814 432.944 157.468 424.484Z" stroke="#FFC658" stroke-dasharray="11 11"/>
<path d="M186.083 464.002C186.609 431.838 222.398 441.6 230.518 462.735C254.603 524.157 281.21 527.308 317.285 526.109C328.791 530.59 334.843 506.286 353.414 501.117C371.984 495.947 381.646 515.111 392.873 505.857C411.408 491.856 427.64 490.381 439.348 496.552C449.709 499.545 457.472 509.902 459.618 523.046C461.528 535.62 458.26 550.625 447.036 564.018C410.398 588.199 433.226 661.594 427.158 685.626C417.911 699.915 427.272 712.301 419.956 732.059C412.639 751.818 391.113 748.89 391.105 758.342C393.532 775.454 391.561 785.856 386.159 791.677C380.165 811.616 353.507 805.376 329.592 787.639C312.915 776.846 297.643 768.559 282.926 767.145C270.633 759.324 255.194 781.859 239.601 785.186C215.548 788.607 214.443 769.036 194.459 780.34C183.852 785.833 173.074 791.094 161.959 796.451C130.918 808.111 112.283 797.963 104.825 783.368C85.1191 778.291 79.1173 752.834 85.2798 728.757C89.6784 713.502 98.4466 698.962 111.279 689.443C139.695 668.336 167.225 655.031 174.735 615.507C179.705 598.326 149.437 576.718 155.673 549.056C159.122 528.64 173.688 515.578 175.06 499.057C176.44 482.441 181.428 469.962 186.083 464.002Z" stroke="#FFC658" stroke-dasharray="11 11"/>
<path d="M215.121 501.744C218.717 485.169 240.155 491.262 245.471 505.117C267.861 562.069 292.593 559.935 323.433 552.16C330.914 553.428 336.402 539.225 348.185 534.839C359.968 530.453 367.353 538.481 374.885 533.901C387.981 526.991 399.032 528.72 406.382 535.445C412.258 538.642 416.559 546.544 416.739 555.827C416.8 564.825 412.957 575.028 402.783 583.376C364.81 602.59 395.026 680.153 392.862 703.116C388.553 714.133 390.72 722.482 383.61 732.703C376.5 742.924 361.344 739.995 357.83 741.345C355.044 746.054 351.261 747.515 346.126 747.343C341.291 755.431 324.545 749.951 308.274 740.103C295.616 733.724 282.766 729.976 270.005 732.902C261.382 730.538 250.877 743.711 239.92 747.693C224.365 751.996 220.625 743.991 207.814 750.74C199.682 754.586 191.818 757.638 184.127 760.203C160.07 765.583 147.661 751.512 145.652 735.631C136.304 730.646 134.189 715.51 138.521 701.304C141.974 691.508 147.984 682.31 156.385 676.069C181.706 657.228 201.041 646.101 205.712 610.616C208.432 597.956 192.41 582.472 194.634 563.965C195.465 549.079 201.871 537.871 202.895 525.55C203.882 513.677 209.464 505.223 215.121 501.744Z" stroke="#FFC658" stroke-dasharray="11 11"/>
</g>
</svg>
