<svg width="290" height="398" viewBox="0 0 290 398" fill="none" xmlns="http://www.w3.org/2000/svg">
<path d="M11.5773 14.4644C11.5773 12.9324 12.8389 11.6708 14.3709 11.6708H25.7257C29.1952 11.6708 32.4845 13.0225 34.9627 15.5008L41.9918 22.5299C44.6052 25.1433 48.1197 26.5852 51.8145 26.5852H227.813C231.553 26.5852 235.023 25.1433 237.636 22.5299L243.809 16.3569C246.287 13.8787 249.531 12.5269 253.046 12.5269H275.846C277.378 12.5269 278.639 13.7885 278.639 15.3205V262.061H279.495V15.3205C279.495 13.2929 277.828 11.6257 275.8 11.6257H253.001C249.261 11.6257 245.792 13.0676 243.178 15.681L237.005 21.854C234.527 24.3322 231.283 25.684 227.768 25.684H51.8596C48.3901 25.684 45.1008 24.3322 42.6226 21.854L35.5935 14.8249C32.9801 12.2115 29.4655 10.7696 25.7707 10.7696H14.416C12.3883 10.7696 10.7212 12.4368 10.7212 14.4644V262.061H11.5773V14.4644Z" fill="#D14509"/>
<path d="M250.12 12.0757L259.808 2.3881C261.34 0.856113 263.412 0 265.575 0H270.937C275.443 0 279.138 3.64974 279.138 8.20065V14.4638C279.138 14.7341 278.822 14.8693 278.642 14.6891L278.282 12.9769C278.237 12.9318 276.344 12.4362 276.299 12.4362L250.12 12.0757Z" fill="#D14509"/>
<path d="M11.1313 183.613L4.19233 190.552C2.66034 192.084 1.75916 194.202 1.75916 196.41V262.105H11.1313V183.613Z" fill="#D14509"/>
<path d="M11.1745 32.3073L2.70351 40.7783C0.946229 42.5356 0 44.8786 0 47.3569V162.346C0 164.824 0.991288 167.167 2.70351 168.925L11.1745 177.396V32.3073Z" fill="#D14509"/>
<path d="M289.816 56.4597C289.816 52.1341 288.104 47.9437 284.995 44.8797L279.047 38.932L279.317 262.107H289.771V56.4597H289.816Z" fill="#D14509"/>
<path d="M11.5773 394.35C11.5773 395.882 12.8389 397.144 14.3709 397.144H25.7257C29.1952 397.144 32.4845 395.792 34.9627 393.314L41.9918 386.285C44.6052 383.671 48.1197 382.23 51.8145 382.23H227.813C231.553 382.23 235.023 383.671 237.636 386.285L243.809 392.458C246.287 394.936 249.531 396.288 253.046 396.288H275.846C277.378 396.288 278.639 395.026 278.639 393.494V262.058H279.495V393.449C279.495 395.477 277.828 397.144 275.8 397.144H253.001C249.261 397.144 245.792 395.702 243.178 393.089L237.005 386.916C234.527 384.437 231.283 383.086 227.768 383.086H51.8596C48.3901 383.086 45.1008 384.437 42.6226 386.916L35.5935 393.945C32.9801 396.558 29.4655 398 25.7707 398H14.416C12.3883 398 10.7212 396.333 10.7212 394.305V262.058H11.5773V394.35Z" fill="#D14509"/>
</svg>
