<?xml version="1.0" encoding="utf-8"?>
<!-- Generator: Adobe Illustrator 24.1.0, SVG Export Plug-In . SVG Version: 6.00 Build 0)  -->
<svg version="1.1" id="Layer_1" xmlns="http://www.w3.org/2000/svg" xmlns:xlink="http://www.w3.org/1999/xlink" x="0px" y="0px"
	 viewBox="0 0 100 100" style="enable-background:new 0 0 100 100;" xml:space="preserve">
<style type="text/css">
	.st0{fill:#FFFFFF;}
</style>
<g>
	<circle cx="50" cy="50" r="50"/>
	<g>
		<polygon class="st0" points="21.3,19.8 21.3,80.2 73.8,80.2 73.8,73.8 28.5,73.8 28.5,26.2 73.8,26.2 73.8,19.8 		"/>
		<path class="st0" d="M73.4,68.7c10.7,0,14.5-6.1,14.5-11.3c0-5.8-3.3-9.3-9.8-10.5l-6.8-1.2c-2.2-0.4-4.6-1.2-4.6-3.8
			c0-3.1,3.1-4.2,6.1-4.2c3.9,0,6,1.3,6.7,4.1h7.2c-0.9-6.4-6-10.4-13.8-10.4c-9.4,0-13.6,5.4-13.6,10.8c0,5.4,3.2,8.7,9.2,9.8
			l6.9,1.2c2.5,0.5,5,1.4,5,4.6c0,2.9-2.6,4.7-6.8,4.7c-4.7,0-7.6-1.8-8.2-5.2h-7.2C59.1,64.4,64.6,68.7,73.4,68.7z"/>
	</g>
</g>
</svg>
